<?xml version="1.0" encoding="UTF-8" standalone="no"?>
<svg
   xmlns:dc="http://purl.org/dc/elements/1.1/"
   xmlns:cc="http://creativecommons.org/ns#"
   xmlns:rdf="http://www.w3.org/1999/02/22-rdf-syntax-ns#"
   xmlns:svg="http://www.w3.org/2000/svg"
   xmlns="http://www.w3.org/2000/svg"
   xmlns:sodipodi="http://sodipodi.sourceforge.net/DTD/sodipodi-0.dtd"
   xmlns:inkscape="http://www.inkscape.org/namespaces/inkscape"
   height="128"
   width="128"
   version="1.1"
   id="svg26"
   sodipodi:docname="Player.svg"
   inkscape:version="0.92.5 (2060ec1f9f, 2020-04-08)">
  <metadata
     id="metadata32">
    <rdf:RDF>
      <cc:Work
         rdf:about="">
        <dc:format>image/svg+xml</dc:format>
        <dc:type
           rdf:resource="http://purl.org/dc/dcmitype/StillImage" />
        <dc:title />
      </cc:Work>
    </rdf:RDF>
  </metadata>
  <defs
     id="defs30" />
  <sodipodi:namedview
     pagecolor="#ffffff"
     bordercolor="#666666"
     borderopacity="1"
     objecttolerance="10"
     gridtolerance="10"
     guidetolerance="10"
     inkscape:pageopacity="0"
     inkscape:pageshadow="2"
     inkscape:window-width="1656"
     inkscape:window-height="981"
     id="namedview28"
     showgrid="false"
     inkscape:zoom="7.375"
     inkscape:cx="42.659669"
     inkscape:cy="49.012429"
     inkscape:window-x="284"
     inkscape:window-y="189"
     inkscape:window-maximized="0"
     inkscape:current-layer="g24" />
  <g
     stroke-width="9.92746"
     transform="matrix(.10073078 0 0 .10073078 12.425923 2.256365)"
     id="g24">
    <path
       d="m0 0v-47.514-6.035-5.492c.108-.001.216-.005.323-.015l36.196-3.49c1.896-.183 3.382-1.709 3.514-3.609l1.116-15.978 31.574-2.253 2.175 14.747c.282 1.912 1.922 3.329 3.856 3.329h38.188c1.933 0 3.573-1.417 3.855-3.329l2.175-14.747 31.575 2.253 1.115 15.978c.133 1.9 1.618 3.425 3.514 3.609l36.182 3.49c.107.01.214.014.322.015v4.711l.015.005v54.325c5.09692 6.4164715 9.92323 13.494208 13.621 19.449-5.651 9.62-12.575 18.217-19.976 26.182-6.864-3.455-13.531-7.369-19.828-11.534-3.151 3.132-6.7 5.694-10.186 8.372-3.425 2.751-7.285 4.768-10.946 7.118 1.09 8.117 1.629 16.108 1.846 24.448-9.446 4.754-19.519 7.906-29.708 10.17-4.068-6.837-7.788-14.241-11.028-21.479-3.842.642-7.702.88-11.567.926v.006c-.027 0-.052-.006-.075-.006-.024 0-.049.006-.073.006v-.006c-3.872-.046-7.729-.284-11.572-.926-3.238 7.238-6.956 14.642-11.03 21.479-10.184-2.264-20.258-5.416-29.703-10.17.216-8.34.755-16.331 1.848-24.448-3.668-2.35-7.523-4.367-10.949-7.118-3.481-2.678-7.036-5.24-10.188-8.372-6.297 4.165-12.962 8.079-19.828 11.534-7.401-7.965-14.321-16.562-19.974-26.182 4.4426579-6.973692 9.2079702-13.9828876 13.621-19.449z"
       fill="#478cbf"
       transform="matrix(4.162611 0 0 -4.162611 104.69892 525.90697)"
       id="path10"
       style="fill:#800000" />
    <path
       d="m 239.13673,978.96535 4.66629,-66.864 c 0.56195,-8.05881 6.97237,-14.4734 15.03119,-15.052 l 160.48947,-11.45134 c 0.39128,-0.0291 0.78257,-0.0416 1.16969,-0.0416 7.97556,0 14.85636,5.85263 16.03438,13.8615 l 9.20353,62.41424 130.95158,-10e-5 9.20353,-62.41414 c 1.2363,-8.40015 8.74565,-14.4401 17.20407,-13.81987 l 160.48947,11.45131 c 8.05882,0.5786 14.46924,6.99319 15.03119,15.052 l 4.66629,66.864 135.4805,13.0623 c -0.0624,-14.5608 -0.24976,-30.5119 -0.24976,-33.688 0,-143.08561 -181.51065,-211.86023 -407.02427,-212.65113 h -0.27473 -0.27889 c -225.51362,0.7909 -406.96182,69.56552 -406.96182,212.65113 0,3.2343 -0.19564,19.1189 -0.26225,33.688 z"
       id="path12"
       inkscape:connector-curvature="0"
       style="fill:#800000;stroke-width:41.3241539" />
    <path
       d="m0 0c0-12.052-9.765-21.815-21.813-21.815-12.042 0-21.81 9.763-21.81 21.815 0 12.044 9.768 21.802 21.81 21.802 12.048 0 21.813-9.758 21.813-21.802"
       fill="#fff"
       transform="matrix(4.162611 0 0 -4.162611 389.21484 625.67104)"
       id="path14" />
    <path
       d="m 357.94416,595.38529 c 0,33.27591 -26.96956,60.24546 -60.27044,60.24546 -33.28424,0 -60.27045,-26.96955 -60.27045,-60.24546 0,-33.27592 26.98621,-60.27045 60.27045,-60.27045 33.30088,0 60.27044,26.99453 60.27044,60.27045"
       id="path16"
       inkscape:connector-curvature="0"
       style="fill:#414042;stroke-width:41.3241539" />
    <path
       d="m0 0c-3.878 0-7.021 2.858-7.021 6.381v20.081c0 3.52 3.143 6.381 7.021 6.381s7.028-2.861 7.028-6.381v-20.081c0-3.523-3.15-6.381-7.028-6.381"
       fill="#fff"
       transform="matrix(4.162611 0 0 -4.162611 511.99336 724.73954)"
       id="path18" />
    <path
       d="m0 0c0-12.052 9.765-21.815 21.815-21.815 12.041 0 21.808 9.763 21.808 21.815 0 12.044-9.767 21.802-21.808 21.802-12.05 0-21.815-9.758-21.815-21.802"
       fill="#fff"
       transform="matrix(4.162611 0 0 -4.162611 634.78706 625.67104)"
       id="path20" />
    <path
       d="m 664.71716,595.38529 c 0,33.27591 26.96123,60.24546 60.23714,60.24546 33.30922,0 60.27045,-26.96955 60.27045,-60.24546 0,-33.27592 -26.96123,-60.27045 -60.27045,-60.27045 -33.27591,0 -60.23714,26.99453 -60.23714,60.27045"
       id="path22"
       inkscape:connector-curvature="0"
       style="fill:#414042;stroke-width:41.3241539" />
  </g>
</svg>
