<?xml version="1.0" encoding="UTF-8" standalone="no"?>
<svg
   xmlns:dc="http://purl.org/dc/elements/1.1/"
   xmlns:cc="http://creativecommons.org/ns#"
   xmlns:rdf="http://www.w3.org/1999/02/22-rdf-syntax-ns#"
   xmlns:svg="http://www.w3.org/2000/svg"
   xmlns="http://www.w3.org/2000/svg"
   xmlns:xlink="http://www.w3.org/1999/xlink"
   xmlns:sodipodi="http://sodipodi.sourceforge.net/DTD/sodipodi-0.dtd"
   xmlns:inkscape="http://www.inkscape.org/namespaces/inkscape"
   height="128"
   width="128"
   version="1.1"
   id="svg26"
   sodipodi:docname="ThrustBeam.svg"
   inkscape:version="0.92.5 (2060ec1f9f, 2020-04-08)">
  <metadata
     id="metadata32">
    <rdf:RDF>
      <cc:Work
         rdf:about="">
        <dc:format>image/svg+xml</dc:format>
        <dc:type
           rdf:resource="http://purl.org/dc/dcmitype/StillImage" />
        <dc:title />
      </cc:Work>
    </rdf:RDF>
  </metadata>
  <defs
     id="defs30" />
  <sodipodi:namedview
     pagecolor="#ffffff"
     bordercolor="#666666"
     borderopacity="1"
     objecttolerance="10"
     gridtolerance="10"
     guidetolerance="10"
     inkscape:pageopacity="0"
     inkscape:pageshadow="2"
     inkscape:window-width="2560"
     inkscape:window-height="1413"
     id="namedview28"
     showgrid="false"
     inkscape:zoom="7.375"
     inkscape:cx="1.7791339"
     inkscape:cy="58.252221"
     inkscape:window-x="0"
     inkscape:window-y="0"
     inkscape:window-maximized="1"
     inkscape:current-layer="g24"
     inkscape:snap-to-guides="false"
     inkscape:snap-grids="false"
     inkscape:snap-others="false"
     inkscape:object-nodes="false"
     inkscape:snap-nodes="false"
     inkscape:snap-global="false" />
  <g
     stroke-width="9.92746"
     transform="matrix(.10073078 0 0 .10073078 12.425923 2.256365)"
     id="g24">
    <use
       x="0"
       y="0"
       xlink:href="#g865"
       id="use867"
       transform="matrix(-1,0,0,1,1022.3642,-1.9036661)"
       width="100%"
       height="100%" />
    <g
       id="g865"
       transform="matrix(1,0,0,0.85823815,0,121.4308)"
       style="stroke-width:10.71603775">
      <path
         sodipodi:nodetypes="ccccccc"
         inkscape:connector-curvature="0"
         id="path824"
         d="m 327.25754,853.90803 -119.80248,41.72895 25.97069,83.32837 c 1.25407,139.17325 70.9987,195.77435 103.25445,307.03915 50.59763,-123.9593 110.8571,-165.325 114.10886,-324.17235 l 13.77018,-95.80926 z"
         style="fill:#ff0000;stroke:#800000;stroke-width:10.71602917px;stroke-linecap:butt;stroke-linejoin:miter;stroke-opacity:1" />
      <path
         inkscape:transform-center-y="16.53708"
         inkscape:transform-center-x="-0.47127657"
         sodipodi:nodetypes="zcccz"
         inkscape:connector-curvature="0"
         id="path824-3"
         d="m 335.92493,866.24906 c -27.72025,2.32702 -87.35966,2.98717 -75.33274,29.54078 0.80893,104.78096 57.91218,199.89256 78.71858,283.66176 32.63774,-93.3266 80.25741,-173.6026 82.35494,-293.1958 6.22376,-42.7733 -58.02053,-22.33377 -85.74078,-20.00674 z"
         style="fill:#ffff00;stroke:#ff6600;stroke-width:10.71602917px;stroke-linecap:butt;stroke-linejoin:miter;stroke-opacity:1" />
      <path
         inkscape:transform-center-y="5.4328174"
         inkscape:transform-center-x="-0.14012158"
         sodipodi:nodetypes="zcccz"
         inkscape:connector-curvature="0"
         id="path824-3-6"
         d="m 334.66296,865.10137 c -8.24187,0.76448 -25.97403,0.98136 -22.39815,9.70485 0.24051,34.42296 17.21862,65.66935 23.40484,93.18949 9.70395,-30.65997 23.86237,-57.03252 24.48601,-96.32167 1.85047,-14.05202 -17.25084,-7.33715 -25.4927,-6.57267 z"
         style="fill:#ffffff;stroke:#ffeeaa;stroke-width:10.71602917px;stroke-linecap:butt;stroke-linejoin:miter;stroke-opacity:1" />
    </g>
  </g>
</svg>
